Franky teaches Bea a tough lesson while Liz struggles with old demons, Franky stirs 


up new feelings in Erica.


Format                                   : MPEG-4
Format profile                           : Base Media / Version 2
Codec ID                                 : mp42
File size                                : 409 MiB
Duration                                 : 47mn 4s
Overall bit rate mode                    : Variable
Overall bit rate                         : 1 213 Kbps
Encoded date                             : UTC 2013-05-23 12:35:02
Tagged date                              : UTC 2013-05-23 12:53:21
Writing application                      : HandBrake 0.9.9 2013051800

Video
ID                                       : 1
Format                                   : AVC
Format/Info                              : Advanced Video Codec
Format profile                           : Main@L4.0
Format settings, CABAC                   : Yes
Format settings, ReFrames                : 4 frames
Codec ID                                 : avc1
Codec ID/Info                            : Advanced Video Coding
Duration                                 : 47mn 4s
Bit rate mode                            : Variable
Bit rate                                 : 1 049 Kbps
Width                                    : 720 pixels
Height                                   : 586 pixels
Display aspect ratio                     : 16:9
Frame rate mode                          : Constant
Frame rate                               : 25.000 fps
Color space                              : YUV
Chroma subsampling                       : 4:2:0
Bit depth                                : 8 bits
Scan type                                : Progressive
Bits/(Pixel*Frame)                       : 0.099
Stream size                              : 353 MiB (86%)
Writing library                          : x264 core 130 r2273 b3065e6
Encoding settings                        : cabac=1 / ref=2 / deblock=1:0:0 / 
Encoded date                             : UTC 2013-05-23 12:35:02
Tagged date                              : UTC 2013-05-23 12:53:21
Color primaries                          : BT.601 PAL
Transfer characteristics                 : BT.709
Matrix coefficients                      : BT.601

Audio
ID                                       : 2
Format                                   : AAC
Format/Info                              : Advanced Audio Codec
Format profile                           : LC
Codec ID                                 : 40
Duration                                 : 47mn 4s
Bit rate mode                            : Variable
Bit rate                                 : 160 Kbps
Maximum bit rate                         : 190 Kbps
Channel(s)                               : 2 channels
Channel positions                        : Front: L R
Sampling rate                            : 48.0 KHz
Compression mode                         : Lossy
Delay relative to video                  : 80ms
Stream size                              : 53.9 MiB (13%)
Encoded date                             : UTC 2013-05-23 12:35:02
Tagged date                              : UTC 2013-05-23 12:53:20



ADD FREE


Ripped from soho channel 115 FOXTEL Australia


Episode number: 1x4
Airdate: Wednesday May 22nd, 2013